<?xml version="1.0" encoding="UTF-8"?>
<svg width="50px" height="56px" viewBox="0 0 50 56" version="1.1" xmlns="http://www.w3.org/2000/svg" xmlns:xlink="http://www.w3.org/1999/xlink">
    <title>World of Barefoot</title>
    <g id="Blog" stroke="none" stroke-width="1" fill="none" fill-rule="evenodd">
        <g id="Blog-Desktop-2" transform="translate(-432.000000, -127.000000)">
            <g id="Group-3" transform="translate(432.000000, 127.000000)">
                <g id="World-of-Barefoot">
                    <path d="M47.4947356,12.2501202 L27.2363221,0.553725962 C26.5961779,0.184254808 25.7541106,0.000120192308 24.9103606,0.000120192308 C24.0670913,0.000120192308 23.2243029,0.184254808 22.5846394,0.553725962 L2.32574519,12.2501202 C1.04617788,12.9888221 2.40384615e-05,14.8010817 2.40384615e-05,16.2782452 L2.40384615e-05,39.6698317 C2.40384615e-05,41.1469952 1.04617788,42.9594952 2.32574519,43.6979567 L22.5846394,55.394351 C23.2243029,55.7638221 24.0670913,55.9479567 24.9103606,55.9479567 C25.7541106,55.9479567 26.5961779,55.7638221 27.2363221,55.394351 L47.4947356,43.6979567 C48.7745433,42.9594952 49.8209375,41.1469952 49.8209375,39.6698317 L49.8209375,16.2782452 C49.8209375,14.8010817 48.7745433,12.9888221 47.4947356,12.2501202 Z" id="Stroke-1" fill="00ffffff"></path>
                    <path d="M33.1683894,40.3091346 C33.1111779,40.4233173 32.8481971,40.5447115 32.7491587,40.5026442 C32.5876202,40.4338942 32.3532452,40.2067308 32.3760817,40.0913462 C32.4777644,39.5759615 32.6289663,39.0639423 32.825601,38.5762019 C32.9280048,38.3221154 33.1594952,38.1192308 33.3373798,37.8971154 C33.4941106,37.7016827 33.6575721,37.5117788 33.818149,37.3194712 C33.9253606,37.5644231 34.0328125,37.809375 34.1772837,38.1387019 C33.8436298,38.8677885 33.524399,39.5978365 33.1683894,40.3091346 M19.6561298,17.0680288 C19.7397837,17.0711538 19.8234375,17.0740385 19.9070913,17.0771635 C19.9554087,17.4670673 20.0426683,17.8588942 20.0205529,18.2444712 C20.0157452,18.3237981 19.6010817,18.3790865 19.1145433,18.5221154 C19.3674279,17.8427885 19.5116587,17.4552885 19.6561298,17.0680288 M20.5981971,15.7923077 C20.6640625,15.5879808 21.013101,15.4206731 21.2633413,15.3576923 C21.3614183,15.3329327 21.5804087,15.6189904 21.6799279,15.7992788 C21.9373798,16.2665865 22.206851,16.7375 22.3772837,17.2391827 C22.4772837,17.5341346 22.5332933,18.0225962 22.3695913,18.1901442 C22.0597356,18.5072115 21.5941106,18.7644231 21.1602163,18.8300481 C20.9325721,18.8646635 20.5953125,18.4735577 20.3847356,18.2125 C20.2549279,18.0516827 20.2710337,17.7733173 20.2376202,17.6211538 C20.3580529,16.959375 20.4157452,16.3557692 20.5981971,15.7923077 M34.3316106,25.9923077 C34.1260817,25.8800481 33.9688702,25.6805288 33.7897837,25.5199519 C34.0051683,26.2829327 34.203726,26.9769231 35.2063702,26.8894231 C35.4936298,26.8641827 35.828726,27.3853365 36.1421875,27.6560096 C35.8864183,27.8841346 35.6510817,28.1420673 35.3698317,28.3322115 C34.9671875,28.6048077 34.538101,28.8413462 34.1073317,29.0682692 C33.6205529,29.325 33.119351,29.5543269 32.600601,29.8069712 C31.9907452,28.4951923 31.4441106,27.3199519 30.8977163,26.1447115 C30.8171875,26.1807692 30.7366587,26.2168269 30.6558894,26.2528846 C30.6227163,27.7769231 32.3239183,28.8682692 31.6116587,30.7983173 C32.5691106,30.4725962 33.2989183,30.2242788 34.1183894,29.9456731 C33.7688702,30.9951923 33.6123798,32.0189904 32.6248798,32.6879808 C31.8128606,33.2384615 31.1784856,33.9180288 31.4590144,35.1168269 C31.5551683,35.5276442 31.1924279,36.1389423 30.8808894,36.5334135 C30.1628606,37.4425481 29.3453125,38.2728365 28.5727163,39.1396635 C28.049399,39.7264423 26.6616587,39.8853365 26.3015625,39.3891827 C26.0633413,39.0610577 25.8176683,38.7367788 25.6049279,38.3925481 C25.0573317,37.5060096 24.7133413,36.6100962 25.258774,35.5574519 C25.3981971,35.2879808 25.2991587,34.8454327 25.2013221,34.5146635 C25.0652644,34.053125 24.7981971,33.6319712 24.6388221,33.1754808 C24.1453125,31.7639423 23.5282452,31.5055288 22.0746394,31.8954327 C21.5205529,32.0439904 20.7477163,32.0495192 20.293149,31.7675481 C19.0561298,31 17.9816106,30.0257212 18.2969952,28.3016827 C18.3945913,27.7685096 18.3929087,27.2165865 18.5010817,26.6862981 C18.5575721,26.4088942 18.711899,26.1254808 18.8953125,25.9055288 C19.2739183,25.4504808 19.690024,25.0245192 20.1145433,24.6108173 C20.299399,24.4307692 20.5236779,24.2384615 20.7626202,24.1759615 C21.7715144,23.9117788 22.793149,23.6959135 23.8092548,23.459375 C24.4299279,23.3149038 24.7734375,23.4882212 24.8566106,24.1877404 C24.941226,24.9009615 25.3823317,25.1028846 26.0955529,24.9112981 C26.5467548,24.7901442 27.0448317,24.8276442 27.5222356,24.8225962 C28.5320913,24.8115385 29.5421875,24.8192308 30.6205529,24.8192308 C30.5760817,24.3608173 30.550601,24.1002404 30.5265625,23.8528846 C28.7294471,23.5528846 28.7294471,23.5528846 28.591226,22.3456731 C28.9981971,22.3456731 29.388101,22.334375 29.7772837,22.3487981 C30.2385817,22.3661058 30.6996394,22.4370192 31.1592548,22.4221154 C31.3722356,22.4151442 31.709976,22.3038462 31.7582933,22.1610577 C31.8174279,21.9853365 31.6919471,21.5911058 31.5453125,21.5286058 C30.863101,21.2372596 30.1522837,21.0040865 29.4356971,20.809375 C29.2953125,20.7711538 28.934976,20.9862981 28.9292067,21.0975962 C28.8924279,21.8264423 28.274399,22.1786058 27.9383413,22.7045673 C27.8051683,22.9132212 27.4938702,23.0081731 27.2633413,23.1548077 C27.1179087,22.9235577 26.8659856,22.7012019 26.8460337,22.4598558 C26.772476,21.5723558 26.2864183,21.0817308 25.3359375,21.0913462 C25.6981971,21.6024038 26.0467548,22.0944712 26.4001202,22.5925481 C25.9969952,22.7788462 25.6948317,22.9185096 25.3472356,23.0790865 C25.2989183,22.2115385 25.0719952,21.3528846 24.1707933,21.3334135 C23.4280048,21.3175481 22.5801683,21.5223558 22.1996394,22.453125 C21.890024,23.2108173 21.008774,23.5088942 20.2768029,23.1980769 C20.134976,23.1379808 19.9688702,22.9492788 19.955649,22.80625 C19.9138221,22.3644231 19.9402644,21.9158654 19.9402644,21.4391827 L21.6126202,21.4391827 C22.225601,20.4362981 20.9469952,20.6740385 20.7972356,20.2100962 C20.8472356,20.1396635 20.8582933,20.1055288 20.8789663,20.0978365 C22.2203125,19.6014423 23.8169471,19.4377404 24.122476,17.5932692 C24.1289663,17.5550481 24.2585337,17.5375 24.3707933,17.4949519 C24.484976,17.6475962 24.5854567,17.8050481 24.7090144,17.9418269 C25.074399,18.3456731 26.5354567,18.2865385 26.8388221,17.8935096 C27.0582933,17.6091346 27.3575721,17.3872596 27.5998798,17.1182692 C27.7282452,16.9757212 27.8111779,16.7920673 27.9147837,16.6266827 C27.5792067,16.4399038 27.256851,16.2117788 26.8981971,16.0973558 C26.819351,16.0723558 26.5248798,16.4329327 26.4808894,16.646875 C26.374399,17.1649038 26.138101,17.5858173 25.5979567,17.5007212 C25.3111779,17.4557692 25.0808894,17.0543269 24.7686298,16.7603365 C24.8061298,16.7401442 24.6866587,16.8608173 24.5748798,16.8540865 C24.1796875,16.8305288 23.7871394,16.7637019 23.3936298,16.7132212 C23.5402644,16.3677885 23.618149,15.9663462 23.8457933,15.6872596 C24.5138221,14.86875 25.4515625,14.5629808 26.4710337,14.3899038 C28.1957933,14.0966346 29.909976,13.7401442 31.6289663,13.4100962 C31.4972356,13.11875 31.391226,13.0314904 31.2703125,12.9826923 C25.7063702,10.7403846 20.4330529,11.2985577 15.4426683,14.6211538 C15.0960337,14.8519231 15.034976,15.0665865 15.1340144,15.4899038 C15.231851,15.909375 15.2385817,16.4694712 15.0320913,16.8173077 C14.4393029,17.8163462 13.7316106,18.7492788 13.0356971,19.6829327 C12.9143029,19.8456731 12.6008413,19.9966346 12.4292067,19.9514423 C12.2707933,19.9098558 12.1042067,19.60625 12.0813702,19.4024038 C12.0301683,18.9413462 12.0652644,18.4706731 12.0652644,17.834375 C10.8647837,19.3867788 9.58810096,20.6987981 11.0914663,22.6084135 C11.543149,23.1822115 11.3782452,23.7646635 10.575601,24.0557692 C10.1479567,24.2108173 9.77752404,24.5165865 9.36838942,24.7295673 C8.88834135,24.9795673 8.62992788,25.3423077 8.64915865,25.8975962 C8.70877404,27.6271635 8.72079327,29.3598558 8.84723558,31.084375 C8.87415865,31.4526442 9.2296875,31.9103365 9.56358173,32.1204327 C10.3518029,32.615625 11.009976,33.1668269 11.2455529,34.1060096 C11.508774,35.1567308 12.056851,35.9021635 13.2248798,36.0463942 C13.4513221,36.0742788 13.650601,36.2793269 13.8753606,36.3721154 C14.6465144,36.690625 14.925601,37.1740385 14.5719952,38.0033654 C14.2998798,38.6411058 14.1376202,39.3252404 13.9140625,40.0278846 C18.2126202,44.3064904 26.0219952,45.9228365 32.5989183,42.3528846 C37.8013221,39.5290865 42.1268029,32.2502404 40.9895433,28.0661058 C40.6179087,28.4862981 40.2469952,28.8403846 39.9578125,29.2519231 C39.669351,29.6620192 39.463101,30.1298077 39.2234375,30.5670673 C38.4090144,30.2213942 38.3717548,30.1651442 38.243149,29.1302885 C38.0491587,27.5682692 36.9030048,26.5216346 35.3433894,26.4055288 C34.996274,26.3795673 34.6513221,26.1668269 34.3316106,25.9923077" id="Fill-3" fill="#F6F6F6"></path>
                    <path d="M33.1056971,24.2364663 C33.3559375,24.1746875 33.7653125,24.1028125 33.8001683,23.9597837 C33.8730048,23.6583413 33.7746875,23.301851 33.6939183,22.9814183 C33.6215625,22.6934375 33.4785337,22.4230048 33.3667548,22.1446394 C33.4311779,22.1165144 33.4951202,22.0883894 33.5597837,22.0602644 L33.217476,21.3407933 C33.0227644,21.5016106 32.803774,21.6410337 32.6395913,21.8285337 C32.4085817,22.0919952 32.5213221,23.9083413 32.7718029,24.1246875 C32.8561779,24.197524 33.0078606,24.2607452 33.1056971,24.2364663" id="Fill-5" fill="#F6F6F6"></path>
                    <path d="M24.9103365,11.3297596 C15.7180288,11.3297596 8.26610577,18.7816827 8.26610577,27.9742308 C8.26610577,37.1665385 15.7180288,44.6184615 24.9103365,44.6184615 C34.1026442,44.6184615 41.5545673,37.1665385 41.5545673,27.9742308 C41.5545673,18.7816827 34.1026442,11.3297596 24.9103365,11.3297596 M24.9103365,12.2912981 C33.5579327,12.2912981 40.5930288,19.3266346 40.5930288,27.9742308 C40.5930288,36.6215865 33.5579327,43.6569231 24.9103365,43.6569231 C16.2629808,43.6569231 9.22764423,36.6215865 9.22764423,27.9742308 C9.22764423,19.3266346 16.2629808,12.2912981 24.9103365,12.2912981" id="Fill-7" fill="#F6F6F6"></path>
                </g>
            </g>
        </g>
    </g>
</svg>